<svg xmlns="http://www.w3.org/2000/svg" xmlns:xlink="http://www.w3.org/1999/xlink"><symbol id="email" viewBox="0 0 24 24"><path d="M0 4v15.9h24V4H0zm12 9.8L2.2 5.2h19.7L12 13.8zM8.1 12l-6.9 6V5.9L8.1 12zm.9.7l3 2.7 3-2.7 6.8 6H2.2l6.8-6zm6.9-.7l6.9-6.1V18l-6.9-6z"/></symbol><symbol id="instagram"><path d="M122.406 0H46.654C20.929 0 0 20.93 0 46.655v75.752c0 25.726 20.929 46.655 46.654 46.655h75.752c25.727 0 46.656-20.93 46.656-46.655V46.655C169.063 20.93 148.133 0 122.406 0zm31.657 122.407c0 17.455-14.201 31.655-31.656 31.655H46.654C29.2 154.063 15 139.862 15 122.407V46.655C15 29.201 29.2 15 46.654 15h75.752c17.455 0 31.656 14.201 31.656 31.655v75.752z"/><path d="M84.531 40.97c-24.021 0-43.563 19.542-43.563 43.563 0 24.02 19.542 43.561 43.563 43.561s43.563-19.541 43.563-43.561c0-24.021-19.542-43.563-43.563-43.563zm0 72.123c-15.749 0-28.563-12.812-28.563-28.561 0-15.75 12.813-28.563 28.563-28.563s28.563 12.813 28.563 28.563c0 15.749-12.814 28.561-28.563 28.561zM129.921 28.251c-2.89 0-5.729 1.17-7.77 3.22a11.053 11.053 0 0 0-3.23 7.78c0 2.891 1.18 5.73 3.23 7.78 2.04 2.04 4.88 3.22 7.77 3.22 2.9 0 5.73-1.18 7.78-3.22 2.05-2.05 3.22-4.89 3.22-7.78 0-2.9-1.17-5.74-3.22-7.78-2.04-2.05-4.88-3.22-7.78-3.22z"/></symbol><symbol id="message" viewBox="0 0 24 24"><path d="M20.5 3.5C18.2 1.3 15.2 0 12 0S5.8 1.3 3.5 3.5c-4.4 4.4-4.7 11.4-.8 16.1-.5 1.1-1.2 1.8-1.9 2.2-.4.2-.7.7-.6 1.2.1.5.4.9.9.9.3 0 .6.1.9.1 1.5 0 3-.5 4.3-1.4C8 23.5 10 24 12 24c3.2 0 6.2-1.2 8.5-3.5S24 15.2 24 12s-1.3-6.2-3.5-8.5zm-1 16c-2 2-4.7 3.1-7.5 3.1-1.9 0-3.8-.5-5.4-1.5-.1-.1-.2-.1-.3-.1-.1 0-.3.1-.4.1-1.5 1.2-3.1 1.4-3.8 1.4.8-.6 1.5-1.5 2.1-2.8 0-.2 0-.5-.2-.7C.3 14.8.5 8.4 4.5 4.5c2-2 4.7-3.1 7.5-3.1s5.5 1.1 7.5 3.1c4.2 4.1 4.2 10.9 0 15z"/><path d="M17 8H7c-.4 0-.7.3-.7.7s.3.7.7.7h10c.4 0 .7-.3.7-.7S17.4 8 17 8zM17 11.3H7c-.4 0-.7.3-.7.7s.3.7.7.7h10c.4 0 .7-.3.7-.7s-.3-.7-.7-.7zM17 14.6H7c-.4 0-.7.3-.7.7s.3.7.7.7h10c.4 0 .7-.3.7-.7s-.3-.7-.7-.7z"/></symbol><symbol id="phone-bubble" viewBox="0 0 24 24"><path d="M21.4 13.5c-.6 4.9-4.1 5.2-4.7 5.4-.3.1-2.8.7-6 .5l-3.5 3.8v-4.4c-4.6-1.3-4.5-6.3-4.4-8.9 0-2.6.5-4.7 2-6.2 2.6-2.4 7.8-2 7.8-2 4.4 0 6.6 1.4 7.1 1.8 1.4 1.5 2.3 4.9 1.7 10m-.7-11.2c-.6-.5-2.9-2.3-8.2-2.3 0 0-6.2-.4-9.2 2.4C1.7 4.2 1.1 6.7 1 9.8c-.1 3.1-.1 9 5.4 10.5v2.4s0 1 .6 1.2c.8.2 1.2-.5 1.9-1.3.4-.4 1-1.1 1.4-1.6 3.8.3 6.7-.4 7-.5.8-.2 5-.8 5.8-6.7.6-5.9-.4-9.8-2.4-11.5"/><path d="M17.4 14.2s-.7-.6-1-.9c-.3-.2-.8-.6-1.1-.7-.5-.3-1-.1-1.3.2l-.4.6c-.2.3-.6.2-.7.2-.7-.2-1.4-.6-2.1-1.3-.7-.7-1.2-1.5-1.3-2.2 0-.3 0-.5.1-.7.3-.3.9-.6 1-1 .2-.6-.8-1.8-.9-2 0 0-.7-.9-1-1.1-.4-.3-.8-.4-1.2-.1-1.3.8-1.7 1.2-1.6 2l.1.2c.6 1.9 1.8 4 3.6 5.9 1.8 1.8 3.7 2.9 5.5 3.6.5.2 1 0 1.5-.4.4-.4.7-.8.9-1.2.3-.4.2-.8-.1-1.1M14.5 9.9c-.1 0-.1-.1-.1-.1 0-.5-.2-.9-.4-1.2-.2-.3-.6-.4-1.1-.4-.1 0-.1-.1-.1-.2s.1-.1.2-.1c.6 0 1 .2 1.3.5.3.3.4.8.5 1.3-.2.1-.3.2-.3.2"/><path d="M15.8 10.4c-.1 0-.1-.1-.1-.2 0-1-.3-1.8-.8-2.4-.3-.3-.6-.6-1-.8s-.9-.3-1.4-.3c-.1 0-.1-.1-.1-.2s.1-.1.2-.1c1.1.1 2 .5 2.6 1.2.6.7.9 1.6.9 2.6-.1.1-.2.2-.3.2"/><path d="M17.3 11c-.1 0-.1-.1-.1-.1 0-.8-.1-1.6-.4-2.3-.2-.7-.6-1.2-1.1-1.7-.5-.5-1-.9-1.6-1.1-.6-.2-1.3-.4-2-.4-.1 0-.1-.1-.1-.1-.2-.2-.1-.3 0-.3 1.5 0 2.8.5 3.9 1.6.5.5.9 1.1 1.2 1.8s.4 1.5.4 2.4l-.2.2z"/></symbol><symbol id="phone" viewBox="0 0 24 24"><path d="M1.9.8l-.6.7C.4 2.3 0 3.5 0 4.9c0 3.6 2.5 8.3 6.6 12.4 6 6 12.9 8.3 15.9 5.4l.7-.7c.5-.5.8-1.2.8-1.9s-.3-1.4-.8-1.9l-2.7-2.7c-1-1-2.7-1-3.8 0l-.7.7c-.7.7-2.6.4-5.7-2.7-2.6-2.6-3-4.1-3-4.8 0-.4.1-.6.3-.9l.7-.7c1-1 1-2.8 0-3.8L5.7.8C5.2.3 4.5 0 3.8 0S2.4.3 1.9.8zm2.7 1.1l2.7 2.7c.4.4.4 1.2 0 1.6l-.7.6c-.5.5-.7 1.2-.7 2 0 1.6 1.2 3.6 3.5 5.9 4.7 4.7 7 3.5 7.8 2.7l.7-.7c.4-.4 1.2-.4 1.6 0l2.7 2.7c.4.4.4 1.2 0 1.6l-.7.7c-2.3 2.3-8.5-.2-13.7-5.4C3.9 12.5 1.5 8 1.5 4.9c0-1 .3-1.9.8-2.4l.7-.6c.2-.2.5-.3.8-.3.3-.1.6 0 .8.3z"/></symbol><symbol id="user" viewBox="0 0 24 24"><path d="M12 16.5c3.7 0 6.8-3.7 6.8-8.3S15.7 0 12 0c-1.8 0-3.6.9-4.8 2.5C5.9 4 5.3 6.1 5.3 8.3c0 4.5 3 8.2 6.7 8.2zm0-15c2.9 0 5.3 3 5.3 6.7S14.9 15 12 15s-5.3-3-5.3-6.8c0-3.7 2.4-6.7 5.3-6.7zM17.3 15c-.4 0-.8.3-.8.8s.3.8.8.8c2.9 0 5.3 2.4 5.3 5.3 0 .4-.3.8-.8.8H2.3c-.4 0-.8-.3-.8-.8 0-2.9 2.4-5.3 5.3-5.3.4 0 .8-.3.8-.8s-.4-.8-.8-.8C3 15 0 18 0 21.8 0 23 1 24 2.3 24h19.5c1.2 0 2.3-1 2.3-2.3C24 18 21 15 17.3 15z"/></symbol></svg>