<?xml version="1.0" standalone="no"?>
<!DOCTYPE svg PUBLIC "-//W3C//DTD SVG 20010904//EN"
 "http://www.w3.org/TR/2001/REC-SVG-20010904/DTD/svg10.dtd">
<svg version="1.0" xmlns="http://www.w3.org/2000/svg"
 width="256.000000pt" height="256.000000pt" viewBox="0 0 256.000000 256.000000"
 preserveAspectRatio="xMidYMid meet">
<metadata>
Created by potrace 1.11, written by Peter Selinger 2001-2013
</metadata>
<g transform="translate(0.000000,256.000000) scale(0.100000,-0.100000)"
fill="#000000" stroke="none">
<path d="M1140 2554 c-34 -6 -141 -25 -160 -30 -83 -19 -213 -65 -218 -76 -2
-5 -10 -8 -17 -8 -20 0 -96 -43 -197 -112 -175 -119 -320 -291 -418 -493 -97
-202 -130 -351 -124 -575 3 -161 5 -177 27 -271 88 -372 336 -683 680 -856 79
-40 209 -86 289 -102 29 -6 64 -14 78 -17 59 -13 318 -12 403 2 299 49 588
215 786 450 132 158 241 402 274 614 20 123 16 348 -7 450 -10 41 -19 82 -21
90 -8 39 -50 147 -82 212 -119 248 -311 448 -548 575 -81 43 -225 100 -274
109 -14 3 -28 7 -32 9 -4 3 -24 7 -45 11 -22 3 -50 8 -64 10 -32 7 -297 13
-330 8z"/>
</g>
</svg>
