<svg xmlns="http://www.w3.org/2000/svg" viewBox="0 0 151 78">
    <style>
        .st0{fill-rule:evenodd;clip-rule:evenodd;fill:#3498c4}
    </style>
    <path class="st0" d="M75.5 0C91.3 0 104 12.8 104 28.5 104 44.3 91.3 57 75.5 57S47 44.3 47 28.5C47 12.8 59.7 0 75.5 0zm0 2.1c14.6 0 26.5 11.8 26.5 26.5C102 43.1 90.1 55 75.5 55S49 43.1 49 28.5 60.9 2.1 75.5 2.1z"/>
    <path d="M75.4 1.4c15 0 27.1 12.1 27.1 27.1 0 15-12.1 27.1-27.1 27.1S48.3 43.5 48.3 28.5c0-14.9 12.2-27.1 27.1-27.1z" fill-rule="evenodd" clip-rule="evenodd" fill="#fff"/>
    <path d="M74.8 38.8c-.7-1.8-1.7-2.6-2.7-4.1-1-1.6-1.9-3.5-2.8-5.3-.5-1-1.4-2.6-2.1-3.3-.1-.1-4.8-3.5-6.1-4.7l-2.7-2.6c-.9-.7-2.3-1.1-3.7-1.1C53 21 52 24.7 52 28.6c0 11.9 8.9 21.8 20.5 23.2 0-.2.1-.4.1-.6 1.6-4.9 4.7-6.5 2.2-12.4zm.6-33.7c6.6 0 12.6 2.7 16.8 7.1-.3.5-.7 1.3-.8 1.5-.4.7-.7 1.1-1.1 1.8-2.8 4-3 3.2-5.9 5.6-2 1.7-2.2 2.5-2.7 3-.2-.2-.6-.8-.8-1.1.5-.3 1.9-1.1 1.5-2.1-.1-.2-.7-.9-.8-1.1-.9-1.2-.9-1-.5-1.7.6-1-.4-.9-1.6-1.3-.4-.2-.3-.1-.4-.5-.3-.8-.8-1.6-1.5-2-.2-.2-1.1-.7-1.4-.8-1.5-.2-2.3-.3-3.5.4-2.4 1.3-3 4.9-1.2 7.1.1.2.3.4.5.6.4.3.4.2.5.5-.6.7-1.5.5-2.2-.1-1.8-1.7-2.8-2.7-5.2-4.1-2.3-1.3-4-2.1-6.5-2.9-.4-.1-1.4-.3-2-.5 4.3-5.6 11.1-9.4 18.8-9.4zm19 9.8c2.7 3.8 4.4 8.5 4.4 13.6 0 9.2-5.3 17.1-13 21 .3-1.1.7-2.4.9-3.9.3-1.7.5-3.3.6-5.1.2-3.3.3-7.7-.2-10.9-.4-3-.3-2.2 1.1-4.2 1.2-1.7 2.3-3.4 3.1-5.5.6-1.5 1.1-4.1 3.1-5z" fill-rule="evenodd" clip-rule="evenodd" fill="#0e6887"/>
    <path d="M5.2 77.5c-1.7 0-3-.5-3.9-1.5C.4 75 0 73.5 0 71.5c0-1.3.2-2.5.6-3.4.4-.9 1-1.7 1.9-2.1.8-.5 1.8-.7 2.9-.7 1.8 0 3.1.5 4 1.5.9 1 1.3 2.5 1.3 4.5 0 1.1-.1 2.1-.4 2.9-.3.8-.6 1.5-1.1 2-.5.5-1.1.9-1.7 1.1-.7.1-1.5.2-2.3.2zm-2.4-6.3c0 1.8.2 3.1.6 4 .4.9 1.1 1.3 2 1.3.5 0 .8-.1 1.2-.4.3-.2.6-.6.8-1 .2-.4.3-1 .4-1.6.1-.6.1-1.3.1-2 0-1.2-.1-2.1-.3-2.9-.2-.8-.5-1.4-.8-1.8-.4-.4-.9-.6-1.4-.6-.9 0-1.5.4-1.9 1.2-.5.9-.7 2.1-.7 3.8zm18.4-5.6v2.6H20c-.1-.7-.4-1.2-.7-1.5-.3-.3-.7-.5-1.2-.5-.9 0-1.6.4-2.1 1.3s-.7 2.2-.7 4c0 1.6.2 2.9.7 3.7.4.8 1.1 1.3 1.9 1.3.4 0 .8-.1 1.1-.2.3-.1.5-.4.6-.6.2-.3.3-.7.4-1.2h1.2v2.7c-.6.2-1.2.3-1.8.3-.5.1-1.1.1-1.7.1-1.2 0-2.2-.2-3-.7-.8-.4-1.3-1.1-1.7-2-.4-.9-.6-2-.6-3.4 0-1.3.2-2.4.6-3.3.4-.9 1.1-1.7 1.9-2.2.8-.5 1.8-.8 3-.8.6 0 1.1 0 1.6.1.7.1 1.2.2 1.7.3zm4.1 11.8v-.6c.2 0 .4-.1.6-.2.1-.1.3-.2.3-.3.1-.1.1-.3.1-.5v-9.5h-.7c-.4 0-.6 0-.8.1-.2.1-.4.2-.5.4-.1.2-.3.4-.4.7-.1.3-.2.6-.2.8h-1.2v-3.1h10.4v3.1h-1.2c-.1-.4-.2-.7-.3-.9-.1-.2-.1-.3-.2-.5l-.3-.3c-.1-.1-.2-.2-.3-.2-.1-.1-.2-.1-.4-.1H29v9.5c0 .2 0 .3.1.4 0 .1.1.2.2.2.1.1.2.1.3.2.1.1.3.1.5.1v.6h-4.8v.1zm17.8-12v2.8h-1.2c-.2-.6-.4-.9-.5-1.1-.1-.2-.3-.4-.5-.5-.2-.1-.5-.2-1-.2H38v4.2h1.2c.3 0 .5 0 .6-.1.1-.1.3-.2.4-.4.1-.2.2-.4.3-.8h1v3.6h-1c-.1-.3-.2-.6-.3-.8-.1-.2-.2-.3-.4-.4-.1-.1-.3-.1-.6-.1H38v4.7h2.5c.1 0 .3-.1.4-.1l.3-.3c.1-.1.2-.2.3-.4.1-.1.2-.3.3-.5.1-.2.2-.5.3-.9h1.2l-.3 3.3h-8.7v-.6c.2-.1.4-.1.5-.2l.3-.3c.1-.1.1-.3.1-.5V67.5v-.7c0-.2-.1-.3-.1-.5l-.3-.3c-.1-.1-.3-.1-.5-.2v-.6h8.8v.2zm6.8 12.1c-1.7 0-3-.5-3.9-1.5-.9-1-1.3-2.5-1.3-4.5 0-1.3.2-2.5.6-3.4.4-.9 1-1.7 1.9-2.1.8-.5 1.8-.7 2.9-.7 1.8 0 3.1.5 4 1.5.9 1 1.3 2.5 1.3 4.5 0 1.1-.1 2.1-.4 2.9-.3.8-.6 1.5-1.1 2-.5.5-1.1.9-1.7 1.1-.7.1-1.5.2-2.3.2zm-2.4-6.3c0 1.8.2 3.1.6 4 .4.9 1.1 1.3 2 1.3.5 0 .8-.1 1.2-.4.3-.2.6-.6.8-1 .2-.4.3-1 .4-1.6.1-.6.1-1.3.1-2 0-1.2-.1-2.1-.3-2.9-.2-.8-.5-1.4-.8-1.8-.4-.4-.9-.6-1.4-.6-.9 0-1.5.4-1.9 1.2-.5.9-.7 2.1-.7 3.8zm20.8-5.3c-.4.1-.7.3-.8.5-.1.2-.2.6-.2 1.2v7.6c0 .6.1 1 .2 1.2.1.2.4.3.8.4v.6h-4.6v-.6c.4-.1.7-.2.8-.4.1-.2.2-.6.2-1.2v-8.7H61v8.7c0 .6.1 1 .2 1.2.1.2.4.4.8.5v.6h-4.6v-.6c.4-.1.7-.2.8-.4.1-.2.2-.6.2-1.2v-7.6c0-.6-.1-1-.2-1.2-.1-.2-.4-.3-.8-.5v-.6h11.1v.5h-.2zm5.3 9.3v.8c0 .2.1.3.1.4.1.1.2.2.3.2.1.1.3.1.6.2v.6H70v-.6c.2-.1.4-.1.5-.2l.3-.3c.1-.1.1-.3.1-.5V67.5v-.7c0-.2-.1-.3-.1-.5l-.3-.3c-.1-.1-.3-.1-.5-.2v-.6h5.1c1.5 0 2.6.3 3.3.8.7.5 1.1 1.4 1.1 2.5 0 .8-.2 1.5-.5 2-.3.6-.8 1-1.5 1.3-.7.3-1.5.4-2.5.4h-1.4v3zm0-3.8h.8c.6 0 1.1-.1 1.4-.2.3-.2.6-.4.8-.8.2-.4.3-.9.3-1.5s-.1-1.1-.3-1.5c-.2-.4-.4-.6-.7-.8-.3-.2-.7-.2-1.2-.2h-1v5h-.1zm12.1 2.3h-3.8l-.3.8c-.1.2-.2.5-.2.7-.1.2-.1.5-.1.7 0 .6.3.9.9.9v.6h-3.8v-.6c.2 0 .4-.1.6-.2.2-.1.3-.3.4-.5.1-.2.3-.5.4-1l3.7-9.8H86l2.9 9.9c.1.4.2.8.3.9.1.2.2.3.3.4.1.1.3.2.6.3v.6h-4.9v-.6c.3 0 .5-.1.7-.3.1-.1.2-.3.2-.6 0-.2 0-.4-.1-.6 0-.2-.1-.5-.2-.8l-.1-.8zm-3.5-1.1h3.2l-1.4-5-1.8 5zm16.3 4.8V77c-.1-.2-.3-.8-.6-1.7-.4-1.1-.7-1.9-.9-2.3-.2-.4-.4-.7-.7-.9-.3-.2-.7-.3-1.2-.3h-.2v3.5c0 .6.1 1 .2 1.2.1.2.4.4.8.5v.6h-4.6V77c.4-.1.7-.2.8-.4.1-.2.2-.6.2-1.2v-7.6c0-.6-.1-1-.2-1.2-.1-.2-.4-.3-.8-.5v-.6h4.6v.6c-.4.1-.7.3-.8.5-.1.2-.2.6-.2 1.2v3.1h.1c.7 0 1.3-.2 1.6-.6.4-.4.7-1 .9-1.8.3-.9.6-1.6.8-2 .3-.4.6-.7 1-.9.4-.2.9-.3 1.5-.3.5 0 .9.1 1.3.2v2.2h-1.2c-.1-.5-.3-.8-.7-.8-.3 0-.6.2-.8.5-.2.3-.4.8-.7 1.4-.4 1-.9 1.7-1.6 2v.1c.6.1 1.1.2 1.5.5.4.2.7.5.8.9.2.3.5 1 .9 2 .5 1.2.8 1.9 1 2.2.2.3.5.4.9.5v.6h-3.7v-.2zm7.3 0v-.6c.2 0 .4-.1.6-.2.1-.1.3-.2.3-.3.1-.1.1-.3.1-.5v-9.5h-.7c-.4 0-.6 0-.8.1-.2.1-.4.2-.5.4-.1.2-.3.4-.4.7-.1.3-.2.6-.2.8H103v-3.1h10.4v3.1h-1.2c-.1-.4-.2-.7-.3-.9-.1-.2-.1-.3-.2-.5l-.3-.3c-.1-.1-.2-.2-.3-.2-.1-.1-.2-.1-.4-.1h-1.2v9.5c0 .2 0 .3.1.4 0 .1.1.2.2.2.1.1.2.1.3.2.1.1.3.1.5.1v.6h-4.8v.1zm19.6-2.2c0 .6.1 1 .2 1.2.1.2.4.3.8.4v.6h-4.6v-.6c.4-.1.7-.2.8-.4.1-.2.2-.6.2-1.2v-3.4c0-1 0-1.8.1-2.4h-.1l-4.2 5.8c0 .6.1 1 .2 1.2.1.2.4.4.8.5v.6H115v-.6c.4-.1.7-.2.8-.4.1-.2.2-.6.2-1.2v-7.6c0-.6-.1-1-.2-1.2-.1-.2-.4-.3-.8-.5v-.6h4.6v.6c-.4.1-.7.3-.8.5-.1.2-.2.6-.2 1.2v3.9c0 .7 0 1.3-.1 1.7h.1l4.2-5.8c0-.5-.1-.8-.2-1-.1-.2-.4-.3-.8-.4v-.6h4.6v.6c-.4.1-.7.3-.8.5-.1.2-.2.6-.2 1.2v7.4zm10 2.2V77c-.1-.2-.3-.8-.6-1.7-.4-1.1-.7-1.9-.9-2.3-.2-.4-.4-.7-.7-.9-.3-.2-.7-.3-1.2-.3h-.2v3.5c0 .6.1 1 .2 1.2.1.2.4.4.8.5v.6h-4.6V77c.4-.1.7-.2.8-.4.1-.2.2-.6.2-1.2v-7.6c0-.6-.1-1-.2-1.2-.1-.2-.4-.3-.8-.5v-.6h4.6v.6c-.4.1-.7.3-.8.5-.1.2-.2.6-.2 1.2v3.1h.2c.7 0 1.3-.2 1.6-.6.4-.4.7-1 .9-1.8.3-.9.6-1.6.8-2 .3-.4.6-.7 1-.9.4-.2.9-.3 1.5-.3.5 0 .9.1 1.3.2v2.2h-1.2c-.1-.5-.3-.8-.7-.8-.3 0-.6.2-.8.5-.2.3-.4.8-.7 1.4-.4 1-.9 1.7-1.6 2v.1c.6.1 1.1.2 1.5.5.4.2.7.5.8.9.2.3.5 1 .9 2 .5 1.2.8 1.9 1 2.2.2.3.5.4.9.5v.6h-3.8v-.2zm11.1-3.7h-3.8l-.3.8c-.1.2-.2.5-.2.7-.1.2-.1.5-.1.7 0 .6.3.9.9.9v.6h-3.8v-.6c.2 0 .4-.1.6-.2.2-.1.3-.3.4-.5.1-.2.3-.5.4-1l3.7-9.8h2.4l2.9 9.9c.1.4.2.8.3.9.1.2.2.3.3.4.1.1.3.2.6.3v.6h-4.9v-.6c.3 0 .5-.1.7-.3.1-.1.2-.3.2-.6 0-.2 0-.4-.1-.6 0-.2-.1-.5-.2-.8v-.8zm-3.4-1.1h3.2l-1.4-5-1.8 5z" fill="#3498c4"/>
    <path class="st0" d="M77.7 37.8c.2 1.7 2.8 1.4 2.6-.3-.1-1.8-2.8-1.5-2.6.3z"/>
    <path class="st0" d="M79 34.7c.4-1.5-1.8-1.9-2.2-.6-.4 1.5 1.9 2.1 2.2.6z"/>
    <path class="st0" d="M78.6 40.8c.2 1.4 2.4 1.1 2.2-.3-.1-1.4-2.5-1.3-2.2.3z"/>
    <path class="st0" d="M78.7 43.9c.3 1.2 2.3 1 2.1-.4-.2-1.4-2.4-1.1-2.1.4z"/>
    <path class="st0" d="M75.8 31.6c.2 1.1 2.2.9 2-.4-.2-1.2-2.3-1-2 .4z"/>
    <path class="st0" d="M78.3 47c.3 1.2 2.2.8 1.9-.5-.3-1.2-2.2-.8-1.9.5z"/>
    <path class="st0" d="M75 28.8c.1 1.1 1.8 1.1 1.8-.1 0-1.2-1.9-1.1-1.8.1z"/>
    <path class="st0" d="M76.3 26.3c.4-1-1.3-1.5-1.6-.5-.2 1 1.2 1.5 1.6.5z"/>
    <path class="st0" d="M77.5 49.9c.3.8 1.8.4 1.5-.6-.4-.9-2-.5-1.5.6z"/>
    <path class="st0" d="M76.4 23.8c.6-.8-.8-1.5-1.2-.7-.3.9.8 1.4 1.2.7z"/>
    <path class="st0" d="M77.2 52.7c.5-.6-.5-1.5-1-.8-.5.8.7 1.3 1 .8z"/>
</svg>
