<svg xmlns="http://www.w3.org/2000/svg" viewBox="0 0 40 40">
    <style>
        .st0{fill-rule:evenodd;clip-rule:evenodd;fill:#3498c4}
    </style>
    <path class="st0" d="M20 0c11 0 20 9 20 20s-9 20-20 20S0 31 0 20 9 0 20 0zm0 1.4c10.2 0 18.6 8.3 18.6 18.6 0 10.2-8.3 18.6-18.6 18.6S1.4 30.2 1.4 20C1.4 9.8 9.8 1.4 20 1.4z"/>
    <path d="M19.9 1c10.5 0 19 8.5 19 19s-8.5 19-19 19S1 30.5 1 20 9.5 1 19.9 1z" fill-rule="evenodd" clip-rule="evenodd" fill="#fff"/>
    <path d="M19.5 27.2c-.5-1.2-1.2-1.8-1.9-2.9-.7-1.1-1.3-2.5-2-3.7-.4-.7-1-1.8-1.4-2.3-.1-.1-3.4-2.5-4.3-3.3L8 13.1c-.6-.5-1.6-.8-2.6-.8-1.2 2.3-1.9 4.9-1.9 7.6 0 8.4 6.3 15.3 14.3 16.3 0-.1.1-.3.1-.4 1.2-3.3 3.4-4.4 1.6-8.6zm.4-23.6c4.6 0 8.8 1.9 11.8 5-.2.4-.5.9-.6 1-.3.5-.5.8-.8 1.3-2 2.8-2.1 2.2-4.1 3.9-1.4 1.2-1.5 1.8-1.9 2.1-.2-.1-.4-.6-.5-.8.3-.2 1.3-.8 1.1-1.5-.1-.1-.5-.6-.6-.7-.6-.9-.6-.7-.3-1.2.4-.7-.3-.6-1.1-.9-.3-.1-.2-.1-.3-.3-.2-.5-.6-1.1-1.1-1.4-.1-.2-.8-.5-1-.5-1.1-.1-1.6-.2-2.5.3-1.7.9-2.1 3.4-.8 5 .1.1.2.3.4.4.3.2.3.1.3.4-.4.5-1.1.3-1.5-.1-1.3-1.2-2-1.9-3.6-2.9-1.6-.9-2.8-1.5-4.6-2-.3-.1-1-.2-1.4-.3 2.9-4.2 7.7-6.8 13.1-6.8zm13.4 6.9c1.9 2.7 3.1 6 3.1 9.5 0 6.4-3.7 12-9.1 14.7.2-.8.5-1.7.7-2.7.2-1.2.4-2.3.4-3.6.2-2.3.2-5.4-.1-7.7-.3-2.1-.2-1.5.8-2.9.9-1.2 1.6-2.4 2.1-3.8.3-1.1.6-2.9 2.1-3.5z" fill-rule="evenodd" clip-rule="evenodd" fill="#0e6887"/>
    <path class="st0" d="M21.5 26.5c.2 1.2 2 1 1.9-.2-.1-1.3-2-1.1-1.9.2z"/>
    <path class="st0" d="M22.5 24.3c.3-1.1-1.3-1.4-1.5-.4-.4 1.1 1.2 1.5 1.5.4z"/>
    <path class="st0" d="M22.2 28.6c.2 1 1.7.8 1.6-.2-.2-1-1.8-.9-1.6.2z"/>
    <path class="st0" d="M22.3 30.8c.2.9 1.6.7 1.5-.3-.2-1-1.8-.8-1.5.3z"/>
    <path class="st0" d="M20.2 22.2c.2.8 1.5.7 1.4-.3-.1-.9-1.6-.7-1.4.3z"/>
    <path class="st0" d="M22 32.9c.2.9 1.5.6 1.3-.3-.2-.9-1.6-.5-1.3.3z"/>
    <path class="st0" d="M19.7 20.2c.1.8 1.3.8 1.3-.1-.1-.8-1.4-.8-1.3.1z"/>
    <path class="st0" d="M20.6 18.4c.3-.7-.9-1.1-1.1-.3-.2.7.8 1.1 1.1.3z"/>
    <path class="st0" d="M21.4 35c.2.6 1.3.3 1-.4-.2-.7-1.3-.4-1 .4z"/>
    <path class="st0" d="M20.7 16.7c.4-.6-.6-1-.8-.5-.4.6.4 1 .8.5z"/>
    <path class="st0" d="M21.2 37c.3-.4-.4-1.1-.7-.6-.4.5.5.9.7.6z"/>
</svg>
