<svg xmlns="http://www.w3.org/2000/svg" xmlns:xlink="http://www.w3.org/1999/xlink"><symbol id="clock" viewBox="0 0 30 30"><path d="M28.6 1.8h-5.8V.9c0-.5-.4-.9-.9-.9s-.9.4-.9.9v.9h-5.2V.9c.1-.5-.3-.9-.8-.9s-.9.4-.9.9v.9H9.2V.9c0-.5-.4-.9-.9-.9s-.9.4-.9.9v.9h-6c-.5 0-.9.4-.9.9v20c0 .5.4.9.9.9h5.4C7.7 27.2 11 30 15 30s7.3-2.8 8.2-6.5h5.4c.5 0 .9-.4.9-.9v-20c0-.4-.4-.8-.9-.8zM7.4 3.5v.8c0 .5.4.9.9.9s.9-.4.9-.9v-.8h4.9v.8c0 .5.4.9.9.9s.9-.4.9-.9v-.8H21v.8c0 .5.4.9.9.9s.9-.4.9-.9v-.8h4.9v3.6H2.3V3.5h5.1zM15 28.2c-3.7 0-6.6-3-6.6-6.6s3-6.6 6.6-6.6c3.7 0 6.6 3 6.6 6.6 0 3.7-2.9 6.6-6.6 6.6zm8.4-6.5v-.1c0-4.6-3.8-8.4-8.4-8.4-4.6 0-8.4 3.8-8.4 8.4v.1H2.3V8.9h25.5v12.8h-4.4z"/><path d="M15.9 21.8v-4.3c0-.5-.4-.9-.9-.9s-.9.4-.9.9v4.6c0 .2.1.5.3.6l2 2c.2.2.4.3.6.3.2 0 .5-.1.6-.3.3-.3.3-.9 0-1.3l-1.7-1.6z"/></symbol><symbol id="hands" viewBox="0 0 30 30"><path d="M29.4 8.7l-6.1-6.1c-.4-.4-.9-.6-1.5-.6-.5 0-1.1.2-1.4.6L19 4c-.2.2-.4.5-.5.8l-6.7-1.2C8.8 3 5.8 5 5.2 8l-.3 1.5c-.3 1.7.8 3.4 2.5 3.7 1.7.3 3.4-.8 3.7-2.5l.2-.9 3 .3 7.9 7.9 1.4 1.4c.3.3.3.8 0 1-.3.3-.8.3-1 0l-3.8-3.8c-.3-.3-.7-.3-1 0-.3.3-.3.7 0 1l3.8 3.8c.1.1.2.3.2.5s-.1.4-.2.5c-.3.3-.8.3-1 0l-3.8-3.8c-.3-.3-.7-.3-1 0-.3.3-.3.7 0 1l3.8 3.8c.3.3.3.8 0 1-.1.1-.3.2-.5.2s-.4-.1-.5-.2l-3.8-3.8c-.3-.3-.7-.3-1 0-.3.3-.3.7 0 1l3.8 3.8c.3.3.3.8 0 1-.3.3-.8.3-1 0L2.9 12.9l-1.8-1.8c-.3-.3-.7-.3-1 0-.3.3-.3.7 0 1L2 13.9l1.9 1.9-1.1 1.1c-.4.4-.5.8-.5 1.3s.2 1 .5 1.3l.3.3c.3.3.7.5 1.1.5 0 .4.2.8.5 1.1l.3.3c.3.3.7.5 1.1.5 0 .4.2.8.5 1.1l.3.3c.3.3.7.5 1.1.5 0 .4.2.8.5 1.1l.3.3c.4.4.8.5 1.3.5s1-.2 1.3-.5l1.1-1.1 2.6 2.6c.4.4.9.6 1.5.6s1.1-.2 1.5-.6c.4-.4.6-.9.6-1.4.5 0 1-.2 1.4-.6.4-.4.6-.9.6-1.4.5 0 1-.2 1.4-.6.4-.4.6-.9.6-1.4.5 0 1-.2 1.4-.6.8-.8.8-2.2 0-3l-.9-.9L27 14l2.4-2.4c.8-.8.8-2.1 0-2.9zM3.8 18.6c-.2-.2-.2-.5 0-.7l1-1 1 1-1 1c-.2.2-.5.2-.7 0l-.3-.3zm2 2c-.2-.2-.2-.5 0-.7l1-1 1 1-1 1c-.2.2-.5.2-.7 0l-.3-.3zm2 2c-.1-.1-.1-.2-.1-.3 0-.1.1-.3.1-.3l1-1 1 1-1 1c-.2.2-.5.2-.7 0l-.3-.4zm3.1 2.3c-.2.2-.5.2-.7 0l-.3-.3c-.2-.2-.2-.5 0-.7l1-1 1 1-1 1zm11.7-8.4L15 8.9c-.1-.1-.3-.2-.4-.2l-3.9-.3h-.1c-.3 0-.6.2-.7.5l-.3 1.5c-.2 1-1.1 1.6-2.1 1.4-.5-.1-.9-.4-1.1-.8-.3-.4-.4-.9-.3-1.3l.3-1.5C7 6 9.2 4.5 11.5 4.9l6.6 1.2.9.8 6.6 6.6-3 3zm5.8-5.9l-1.9 1.9L19.9 6c-.1-.1-.2-.3-.2-.5s.1-.4.2-.5l1.4-1.4c.1-.1.3-.2.5-.2s.4.1.5.2l6.1 6.1c.1.1.2.3.2.5 0 .1 0 .3-.2.4z"/><path d="M26.8 9.7c.4 0 .7.3.7.7 0 .4-.3.7-.7.7-.4 0-.7-.3-.7-.7 0-.4.3-.7.7-.7z"/></symbol><symbol id="phone" viewBox="0 0 24 24"><path d="M4.8 16c2.4 2.8 5.2 5.1 8.5 6.6 1.2.6 2.9 1.3 4.7 1.4h.3c1.2 0 2.2-.4 3-1.3.3-.3.6-.7 1-1l.7-.7c1.1-1.1 1.1-2.5 0-3.6l-3-3c-.5-.5-1.1-.8-1.8-.8-.6 0-1.2.3-1.8.8l-1.8 1.8c-.2-.1-.3-.2-.5-.3-.2-.1-.4-.2-.5-.3-1.6-1-3.1-2.4-4.5-4.1-.7-.9-1.2-1.7-1.5-2.4.5-.4.9-.9 1.3-1.3.1-.2.3-.3.5-.5.5-.5.8-1.2.8-1.8 0-.6-.3-1.3-.8-1.8L8.1 2.3l-.5-.5-1-1C6 .3 5.4 0 4.8 0 4.2 0 3.6.3 3 .8L1.2 2.6C.5 3.3.1 4.1 0 5.1c-.1 1.2.1 2.5.7 4 .9 2.3 2.2 4.5 4.1 6.9zM1.2 5.2c.1-.7.3-1.2.8-1.7l1.8-1.8c.3-.3.6-.4.9-.4.3 0 .6.1.9.4l1 1c.2.1.4.3.6.5l1.5 1.5c.3.2.4.6.4.9 0 .3-.2.6-.5.9-.1.1-.2.3-.4.5-.5.4-.9.9-1.4 1.3-.4.4-.3.8-.2 1.1.4.9.9 1.8 1.7 2.8 1.5 1.8 3.1 3.3 4.8 4.4.2.1.4.2.7.4.2.1.4.2.5.3h.1c.2.1.3.1.5.1.4 0 .7-.3.7-.3l1.9-1.9c.3-.3.6-.4.9-.4.4 0 .7.2.9.4l3 3c.6.6.6 1.2 0 1.9l-.7.7c-.3.3-.7.7-1 1.1-.6.6-1.3.9-2.1.9h-.3c-1.6-.1-3.1-.7-4.3-1.3-3.1-1.5-5.9-3.6-8.1-6.3-1.9-2.2-3.1-4.3-3.9-6.6-.6-1.3-.7-2.4-.7-3.4z"/></symbol><symbol id="trophy" viewBox="0 0 30 30"><path d="M28.6 3.4L21.5.1c-.2-.1-.4-.1-.6-.1-.2.1-.4.2-.4.4L15 12.2 9.3.5c0-.2-.2-.4-.4-.5-.2 0-.4 0-.6.1L1.2 3.4c-.4.2-.6.7-.4 1.1l5.7 12.2c-.5.3-.9.7-1 1.3-.2.9.1 1.8.9 2.2.2.1.2.2.2.3 0 .1 0 .2-.2.3-.8.4-1.2 1.3-.9 2.2.2.9 1 1.5 1.9 1.4.2 0 .3.1.3.2s.1.2 0 .4c-.5.8-.4 1.7.3 2.4.6.6 1.6.8 2.4.3.2-.1.3 0 .4 0 .1 0 .2.1.2.3 0 .9.6 1.7 1.4 1.9.2 0 .3.1.5.1.7 0 1.3-.4 1.7-1 .1-.2.2-.2.3-.2.1 0 .2 0 .3.2.4.8 1.3 1.2 2.2.9.9-.2 1.5-1 1.4-1.9 0-.2.1-.3.2-.3s.2-.1.4 0c.8.5 1.7.4 2.4-.3.6-.6.8-1.6.3-2.4-.1-.2 0-.3 0-.4 0-.1.1-.2.3-.2.9 0 1.7-.6 1.9-1.4.2-.9-.1-1.8-.9-2.2-.2-.1-.2-.2-.2-.3 0-.1 0-.2.2-.3.8-.4 1.2-1.3.9-2.2-.2-.6-.5-1-1.1-1.3L29 4.5c.2-.4 0-.9-.4-1.1zm-5.8 15c0 .1 0 .3-.2.4-.6.3-1 1-1 1.7s.4 1.4 1 1.7c.2.1.2.3.2.4 0 .1-.1.3-.3.3-.7 0-1.4.4-1.7 1-.4.6-.4 1.4 0 2 .1.2 0 .4-.1.4-.1.1-.2.2-.4.1-.6-.4-1.4-.4-2 0-.6.4-1 1-1 1.7 0 .2-.2.3-.3.4-.1 0-.3 0-.4-.2-.3-.6-1-1-1.7-1s-1.4.4-1.7 1c-.1.2-.3.2-.4.2-.1 0-.3-.1-.3-.4 0-.7-.4-1.4-1-1.7-.6-.4-1.4-.4-2 0-.2.1-.4 0-.4-.1-.1-.1-.2-.2-.1-.4.4-.6.4-1.4 0-2-.4-.6-1-1-1.7-1-.2 0-.3-.2-.4-.3 0-.1 0-.3.2-.4.6-.3 1-1 1-1.7s-.4-1.4-1-1.7c-.1-.1-.1-.3-.1-.4 0-.1.1-.3.4-.3.7 0 1.4-.4 1.7-1 .4-.6.4-1.4 0-2-.1-.2 0-.4.1-.4.1-.1.2-.2.4-.1.6.4 1.4.4 2 0 .6-.4 1-1 1-1.7 0-.2.2-.3.3-.4.1 0 .3 0 .4.2.3.6 1 1 1.7 1s1.4-.4 1.7-1c.1-.2.3-.2.4-.2.1 0 .3.1.3.4 0 .7.4 1.4 1 1.7.6.4 1.4.4 2 0 .2-.1.4 0 .4.1.1.1.2.2.1.4-.4.6-.4 1.4 0 2 .4.6 1 1 1.7 1 .1 0 .1.2.2.3zM8.2 1.9l4.3 9.2h-.2c-.9.2-1.5 1-1.4 1.9 0 .2-.1.3-.2.3s-.2.1-.4 0c-.7-.4-1.7-.3-2.3.3-.4.4-.6.8-.6 1.3L2.6 4.5l5.6-2.6zm14.2 13c0-.5-.2-.9-.6-1.3-.6-.6-1.6-.8-2.4-.3-.2.1-.3 0-.4 0-.1 0-.2-.1-.2-.3 0-.9-.6-1.7-1.4-1.9h-.2l4.3-9.2 5.7 2.7-4.8 10.3z"/></symbol><symbol id="user" viewBox="0 0 24 24"><path d="M12 13.3c3.5 0 6.4-2.9 6.4-6.4 0-3.5-2.9-6.4-6.4-6.4-3.5 0-6.4 2.9-6.4 6.4-.1 3.5 2.8 6.4 6.4 6.4zm0-11.1c2.6 0 4.7 2.1 4.7 4.7s-2.1 4.7-4.7 4.7-4.7-2.1-4.7-4.7C7.2 4.3 9.4 2.2 12 2.2zM.8 23.4h22.3c.5 0 .8-.4.8-.8 0-4.4-3.6-8.1-8.1-8.1H8.1c-4.4 0-8.1 3.6-8.1 8.1 0 .4.4.8.8.8zm7.3-7.3H16c3.2 0 5.9 2.4 6.3 5.5H1.8c.4-3 3-5.5 6.3-5.5z"/></symbol></svg>