<svg xmlns="http://www.w3.org/2000/svg" viewBox="0 0 40 40"><style type="text/css">
	.st0{fill-rule:evenodd;clip-rule:evenodd;fill:#3498C4;}
	.st1{fill-rule:evenodd;clip-rule:evenodd;fill:#FFFFFF;}
	.st2{fill-rule:evenodd;clip-rule:evenodd;fill:#0E6887;}
</style><path class="st0" d="M20 0c11 0 20 9 20 20 0 11-9 20-20 20S0 31 0 20C0 9 9 0 20 0L20 0zM20 1.4c10.2 0 18.6 8.3 18.6 18.6 0 10.2-8.3 18.6-18.6 18.6S1.4 30.2 1.4 20C1.4 9.8 9.8 1.4 20 1.4L20 1.4z"/><path class="st1" d="M19.9 1c10.5 0 19 8.5 19 19 0 10.5-8.5 19-19 19S1 30.5 1 20C1 9.5 9.5 1 19.9 1L19.9 1z"/><path class="st2" d="M19.5 27.2c-0.5-1.2-1.2-1.8-1.9-2.9 -0.7-1.1-1.3-2.5-2-3.7 -0.4-0.7-1-1.8-1.4-2.3 -0.1-0.1-3.4-2.5-4.3-3.3L8 13.1c-0.6-0.5-1.6-0.8-2.6-0.8 -1.2 2.3-1.9 4.9-1.9 7.6 0 8.4 6.3 15.3 14.3 16.3 0-0.1 0.1-0.3 0.1-0.4C19.1 32.5 21.3 31.4 19.5 27.2L19.5 27.2zM19.9 3.6c4.6 0 8.8 1.9 11.8 5 -0.2 0.4-0.5 0.9-0.6 1 -0.3 0.5-0.5 0.8-0.8 1.3 -2 2.8-2.1 2.2-4.1 3.9 -1.4 1.2-1.5 1.8-1.9 2.1 -0.2-0.1-0.4-0.6-0.5-0.8 0.3-0.2 1.3-0.8 1.1-1.5 -0.1-0.1-0.5-0.6-0.6-0.7 -0.6-0.9-0.6-0.7-0.3-1.2 0.4-0.7-0.3-0.6-1.1-0.9 -0.3-0.1-0.2-0.1-0.3-0.3 -0.2-0.5-0.6-1.1-1.1-1.4 -0.1-0.2-0.8-0.5-1-0.5 -1.1-0.1-1.6-0.2-2.5 0.3 -1.7 0.9-2.1 3.4-0.8 5 0.1 0.1 0.2 0.3 0.4 0.4 0.3 0.2 0.3 0.1 0.3 0.4 -0.4 0.5-1.1 0.3-1.5-0.1 -1.3-1.2-2-1.9-3.6-2.9 -1.6-0.9-2.8-1.5-4.6-2 -0.3-0.1-1-0.2-1.4-0.3C9.7 6.2 14.5 3.6 19.9 3.6L19.9 3.6zM33.3 10.5c1.9 2.7 3.1 6 3.1 9.5 0 6.4-3.7 12-9.1 14.7 0.2-0.8 0.5-1.7 0.7-2.7 0.2-1.2 0.4-2.3 0.4-3.6 0.2-2.3 0.2-5.4-0.1-7.7 -0.3-2.1-0.2-1.5 0.8-2.9 0.9-1.2 1.6-2.4 2.1-3.8C31.5 12.9 31.8 11.1 33.3 10.5L33.3 10.5z"/><path class="st0" d="M21.5 26.5c0.2 1.2 2 1 1.9-0.2C23.3 25 21.4 25.2 21.5 26.5L21.5 26.5z"/><path class="st0" d="M22.5 24.3c0.3-1.1-1.3-1.4-1.5-0.4C20.6 25 22.2 25.4 22.5 24.3L22.5 24.3z"/><path class="st0" d="M22.2 28.6c0.2 1 1.7 0.8 1.6-0.2C23.6 27.4 22 27.5 22.2 28.6L22.2 28.6z"/><path class="st0" d="M22.3 30.8c0.2 0.9 1.6 0.7 1.5-0.3C23.6 29.5 22 29.7 22.3 30.8L22.3 30.8z"/><path class="st0" d="M20.2 22.2c0.2 0.8 1.5 0.7 1.4-0.3C21.5 21 20 21.2 20.2 22.2L20.2 22.2z"/><path class="st0" d="M22 32.9c0.2 0.9 1.5 0.6 1.3-0.3C23.1 31.7 21.7 32.1 22 32.9L22 32.9z"/><path class="st0" d="M19.7 20.2c0.1 0.8 1.3 0.8 1.3-0.1C20.9 19.3 19.6 19.3 19.7 20.2L19.7 20.2z"/><path class="st0" d="M20.6 18.4c0.3-0.7-0.9-1.1-1.1-0.3C19.3 18.8 20.3 19.2 20.6 18.4L20.6 18.4z"/><path class="st0" d="M21.4 35c0.2 0.6 1.3 0.3 1-0.4C22.2 33.9 21.1 34.2 21.4 35L21.4 35z"/><path class="st0" d="M20.7 16.7c0.4-0.6-0.6-1-0.8-0.5C19.5 16.8 20.3 17.2 20.7 16.7L20.7 16.7z"/><path class="st0" d="M21.2 37c0.3-0.4-0.4-1.1-0.7-0.6C20.1 36.9 21 37.3 21.2 37L21.2 37z"/></svg>
