<svg xmlns="http://www.w3.org/2000/svg" viewBox="0 0 151 78"><style type="text/css">
	.st0{fill-rule:evenodd;clip-rule:evenodd;fill:#3498C4;}
	.st1{fill-rule:evenodd;clip-rule:evenodd;fill:#FFFFFF;}
	.st2{fill-rule:evenodd;clip-rule:evenodd;fill:#0E6887;}
	.st3{fill:#3498C4;}
</style><path class="st0" d="M75.5 0C91.3 0 104 12.8 104 28.5 104 44.3 91.3 57 75.5 57S47 44.3 47 28.5C47 12.8 59.7 0 75.5 0L75.5 0zM75.5 2.1c14.6 0 26.5 11.8 26.5 26.5C102 43.1 90.1 55 75.5 55S49 43.1 49 28.5C49 13.9 60.9 2.1 75.5 2.1L75.5 2.1z"/><path class="st1" d="M75.4 1.4c15 0 27.1 12.1 27.1 27.1 0 15-12.1 27.1-27.1 27.1S48.3 43.5 48.3 28.5C48.3 13.6 60.5 1.4 75.4 1.4L75.4 1.4z"/><path class="st2" d="M74.8 38.8c-0.7-1.8-1.7-2.6-2.7-4.1 -1-1.6-1.9-3.5-2.8-5.3 -0.5-1-1.4-2.6-2.1-3.3 -0.1-0.1-4.8-3.5-6.1-4.7l-2.7-2.6c-0.9-0.7-2.3-1.1-3.7-1.1 -1.7 3.3-2.7 7-2.7 10.9 0 11.9 8.9 21.8 20.5 23.2 0-0.2 0.1-0.4 0.1-0.6C74.2 46.3 77.3 44.7 74.8 38.8L74.8 38.8zM75.4 5.1c6.6 0 12.6 2.7 16.8 7.1 -0.3 0.5-0.7 1.3-0.8 1.5 -0.4 0.7-0.7 1.1-1.1 1.8 -2.8 4-3 3.2-5.9 5.6 -2 1.7-2.2 2.5-2.7 3 -0.2-0.2-0.6-0.8-0.8-1.1 0.5-0.3 1.9-1.1 1.5-2.1 -0.1-0.2-0.7-0.9-0.8-1.1 -0.9-1.2-0.9-1-0.5-1.7 0.6-1-0.4-0.9-1.6-1.3 -0.4-0.2-0.3-0.1-0.4-0.5 -0.3-0.8-0.8-1.6-1.5-2 -0.2-0.2-1.1-0.7-1.4-0.8 -1.5-0.2-2.3-0.3-3.5 0.4 -2.4 1.3-3 4.9-1.2 7.1 0.1 0.2 0.3 0.4 0.5 0.6 0.4 0.3 0.4 0.2 0.5 0.5 -0.6 0.7-1.5 0.5-2.2-0.1 -1.8-1.7-2.8-2.7-5.2-4.1 -2.3-1.3-4-2.1-6.5-2.9 -0.4-0.1-1.4-0.3-2-0.5C60.9 8.9 67.7 5.1 75.4 5.1L75.4 5.1zM94.4 14.9c2.7 3.8 4.4 8.5 4.4 13.6 0 9.2-5.3 17.1-13 21 0.3-1.1 0.7-2.4 0.9-3.9 0.3-1.7 0.5-3.3 0.6-5.1 0.2-3.3 0.3-7.7-0.2-10.9 -0.4-3-0.3-2.2 1.1-4.2 1.2-1.7 2.3-3.4 3.1-5.5C91.9 18.4 92.4 15.8 94.4 14.9L94.4 14.9z"/><path class="st3" d="M5.2 77.5c-1.7 0-3-0.5-3.9-1.5C0.4 75 0 73.5 0 71.5c0-1.3 0.2-2.5 0.6-3.4 0.4-0.9 1-1.7 1.9-2.1 0.8-0.5 1.8-0.7 2.9-0.7 1.8 0 3.1 0.5 4 1.5 0.9 1 1.3 2.5 1.3 4.5 0 1.1-0.1 2.1-0.4 2.9 -0.3 0.8-0.6 1.5-1.1 2 -0.5 0.5-1.1 0.9-1.7 1.1C6.8 77.4 6 77.5 5.2 77.5L5.2 77.5zM2.8 71.2c0 1.8 0.2 3.1 0.6 4 0.4 0.9 1.1 1.3 2 1.3 0.5 0 0.8-0.1 1.2-0.4 0.3-0.2 0.6-0.6 0.8-1 0.2-0.4 0.3-1 0.4-1.6 0.1-0.6 0.1-1.3 0.1-2 0-1.2-0.1-2.1-0.3-2.9 -0.2-0.8-0.5-1.4-0.8-1.8 -0.4-0.4-0.9-0.6-1.4-0.6 -0.9 0-1.5 0.4-1.9 1.2C3 68.3 2.8 69.5 2.8 71.2L2.8 71.2zM21.2 65.6v2.6H20c-0.1-0.7-0.4-1.2-0.7-1.5 -0.3-0.3-0.7-0.5-1.2-0.5 -0.9 0-1.6 0.4-2.1 1.3 -0.5 0.9-0.7 2.2-0.7 4 0 1.6 0.2 2.9 0.7 3.7 0.4 0.8 1.1 1.3 1.9 1.3 0.4 0 0.8-0.1 1.1-0.2 0.3-0.1 0.5-0.4 0.6-0.6 0.2-0.3 0.3-0.7 0.4-1.2h1.2v2.7c-0.6 0.2-1.2 0.3-1.8 0.3 -0.5 0.1-1.1 0.1-1.7 0.1 -1.2 0-2.2-0.2-3-0.7 -0.8-0.4-1.3-1.1-1.7-2 -0.4-0.9-0.6-2-0.6-3.4 0-1.3 0.2-2.4 0.6-3.3 0.4-0.9 1.1-1.7 1.9-2.2 0.8-0.5 1.8-0.8 3-0.8 0.6 0 1.1 0 1.6 0.1C20.2 65.4 20.7 65.5 21.2 65.6L21.2 65.6zM25.3 77.4v-0.6c0.2 0 0.4-0.1 0.6-0.2 0.1-0.1 0.3-0.2 0.3-0.3 0.1-0.1 0.1-0.3 0.1-0.5 0-0.2 0-0.4 0-0.7v-8.8h-0.7c-0.4 0-0.6 0-0.8 0.1 -0.2 0.1-0.4 0.2-0.5 0.4 -0.1 0.2-0.3 0.4-0.4 0.7 -0.1 0.3-0.2 0.6-0.2 0.8h-1.2v-3.1h10.4v3.1h-1.2c-0.1-0.4-0.2-0.7-0.3-0.9 -0.1-0.2-0.1-0.3-0.2-0.5 -0.1-0.1-0.2-0.2-0.3-0.3 -0.1-0.1-0.2-0.2-0.3-0.2 -0.1-0.1-0.2-0.1-0.4-0.1 -0.2 0-0.3 0-0.6 0h-0.6v8.8c0 0.3 0 0.5 0 0.7 0 0.2 0 0.3 0.1 0.4 0 0.1 0.1 0.2 0.2 0.2 0.1 0.1 0.2 0.1 0.3 0.2 0.1 0.1 0.3 0.1 0.5 0.1v0.6H25.3L25.3 77.4zM43.1 65.4v2.8h-1.2c-0.2-0.6-0.4-0.9-0.5-1.1 -0.1-0.2-0.3-0.4-0.5-0.5 -0.2-0.1-0.5-0.2-1-0.2H38v4.2h1.2c0.3 0 0.5 0 0.6-0.1 0.1-0.1 0.3-0.2 0.4-0.4 0.1-0.2 0.2-0.4 0.3-0.8h1v3.6h-1c-0.1-0.3-0.2-0.6-0.3-0.8 -0.1-0.2-0.2-0.3-0.4-0.4 -0.1-0.1-0.3-0.1-0.6-0.1H38v4.7H40c0.2 0 0.4 0 0.5 0 0.1 0 0.3-0.1 0.4-0.1 0.1-0.1 0.2-0.2 0.3-0.3 0.1-0.1 0.2-0.2 0.3-0.4 0.1-0.1 0.2-0.3 0.3-0.5 0.1-0.2 0.2-0.5 0.3-0.9h1.2L43 77.4h-8.7v-0.6c0.2-0.1 0.4-0.1 0.5-0.2 0.1-0.1 0.2-0.2 0.3-0.3 0.1-0.1 0.1-0.3 0.1-0.5 0-0.2 0-0.4 0-0.7v-7.6c0-0.3 0-0.5 0-0.7 0-0.2-0.1-0.3-0.1-0.5 -0.1-0.1-0.2-0.2-0.3-0.3 -0.1-0.1-0.3-0.1-0.5-0.2v-0.6H43.1L43.1 65.4zM49.9 77.5c-1.7 0-3-0.5-3.9-1.5 -0.9-1-1.3-2.5-1.3-4.5 0-1.3 0.2-2.5 0.6-3.4 0.4-0.9 1-1.7 1.9-2.1 0.8-0.5 1.8-0.7 2.9-0.7 1.8 0 3.1 0.5 4 1.5 0.9 1 1.3 2.5 1.3 4.5 0 1.1-0.1 2.1-0.4 2.9 -0.3 0.8-0.6 1.5-1.1 2 -0.5 0.5-1.1 0.9-1.7 1.1C51.5 77.4 50.7 77.5 49.9 77.5L49.9 77.5zM47.5 71.2c0 1.8 0.2 3.1 0.6 4 0.4 0.9 1.1 1.3 2 1.3 0.5 0 0.8-0.1 1.2-0.4 0.3-0.2 0.6-0.6 0.8-1 0.2-0.4 0.3-1 0.4-1.6 0.1-0.6 0.1-1.3 0.1-2 0-1.2-0.1-2.1-0.3-2.9 -0.2-0.8-0.5-1.4-0.8-1.8 -0.4-0.4-0.9-0.6-1.4-0.6 -0.9 0-1.5 0.4-1.9 1.2C47.7 68.3 47.5 69.5 47.5 71.2L47.5 71.2zM68.3 65.9c-0.4 0.1-0.7 0.3-0.8 0.5 -0.1 0.2-0.2 0.6-0.2 1.2v7.6c0 0.6 0.1 1 0.2 1.2 0.1 0.2 0.4 0.3 0.8 0.4v0.6h-4.6v-0.6c0.4-0.1 0.7-0.2 0.8-0.4 0.1-0.2 0.2-0.6 0.2-1.2v-8.7h-3.7v8.7c0 0.6 0.1 1 0.2 1.2 0.1 0.2 0.4 0.4 0.8 0.5v0.6h-4.6v-0.6c0.4-0.1 0.7-0.2 0.8-0.4 0.1-0.2 0.2-0.6 0.2-1.2v-7.6c0-0.6-0.1-1-0.2-1.2 -0.1-0.2-0.4-0.3-0.8-0.5v-0.6h11.1V65.9L68.3 65.9zM73.6 75.2c0 0.4 0 0.7 0 0.8 0 0.2 0.1 0.3 0.1 0.4 0.1 0.1 0.2 0.2 0.3 0.2 0.1 0.1 0.3 0.1 0.6 0.2v0.6H70v-0.6c0.2-0.1 0.4-0.1 0.5-0.2 0.1-0.1 0.2-0.2 0.3-0.3 0.1-0.1 0.1-0.3 0.1-0.5 0-0.2 0-0.4 0-0.7v-7.6c0-0.3 0-0.5 0-0.7 0-0.2-0.1-0.3-0.1-0.5 -0.1-0.1-0.2-0.2-0.3-0.3 -0.1-0.1-0.3-0.1-0.5-0.2v-0.6h5.1c1.5 0 2.6 0.3 3.3 0.8 0.7 0.5 1.1 1.4 1.1 2.5 0 0.8-0.2 1.5-0.5 2 -0.3 0.6-0.8 1-1.5 1.3 -0.7 0.3-1.5 0.4-2.5 0.4 -0.6 0-1 0-1.4 0V75.2L73.6 75.2zM73.6 71.4h0.8c0.6 0 1.1-0.1 1.4-0.2 0.3-0.2 0.6-0.4 0.8-0.8 0.2-0.4 0.3-0.9 0.3-1.5 0-0.6-0.1-1.1-0.3-1.5 -0.2-0.4-0.4-0.6-0.7-0.8 -0.3-0.2-0.7-0.2-1.2-0.2 -0.4 0-0.7 0-1 0V71.4L73.6 71.4zM85.7 73.7h-3.8l-0.3 0.8c-0.1 0.2-0.2 0.5-0.2 0.7 -0.1 0.2-0.1 0.5-0.1 0.7 0 0.6 0.3 0.9 0.9 0.9v0.6h-3.8v-0.6c0.2 0 0.4-0.1 0.6-0.2 0.2-0.1 0.3-0.3 0.4-0.5 0.1-0.2 0.3-0.5 0.4-1l3.7-9.8H86l2.9 9.9c0.1 0.4 0.2 0.8 0.3 0.9 0.1 0.2 0.2 0.3 0.3 0.4 0.1 0.1 0.3 0.2 0.6 0.3v0.6h-4.9v-0.6c0.3 0 0.5-0.1 0.7-0.3 0.1-0.1 0.2-0.3 0.2-0.6 0-0.2 0-0.4-0.1-0.6 0-0.2-0.1-0.5-0.2-0.8L85.7 73.7 85.7 73.7zM82.2 72.6h3.2l-1.4-5L82.2 72.6 82.2 72.6zM98.5 77.4V77c-0.1-0.2-0.3-0.8-0.6-1.7 -0.4-1.1-0.7-1.9-0.9-2.3 -0.2-0.4-0.4-0.7-0.7-0.9 -0.3-0.2-0.7-0.3-1.2-0.3h-0.2v3.5c0 0.6 0.1 1 0.2 1.2 0.1 0.2 0.4 0.4 0.8 0.5v0.6h-4.6v-0.6c0.4-0.1 0.7-0.2 0.8-0.4 0.1-0.2 0.2-0.6 0.2-1.2v-7.6c0-0.6-0.1-1-0.2-1.2 -0.1-0.2-0.4-0.3-0.8-0.5v-0.6h4.6v0.6c-0.4 0.1-0.7 0.3-0.8 0.5 -0.1 0.2-0.2 0.6-0.2 1.2v3.1H95c0.7 0 1.3-0.2 1.6-0.6 0.4-0.4 0.7-1 0.9-1.8 0.3-0.9 0.6-1.6 0.8-2 0.3-0.4 0.6-0.7 1-0.9 0.4-0.2 0.9-0.3 1.5-0.3 0.5 0 0.9 0.1 1.3 0.2v2.2h-1.2c-0.1-0.5-0.3-0.8-0.7-0.8 -0.3 0-0.6 0.2-0.8 0.5 -0.2 0.3-0.4 0.8-0.7 1.4 -0.4 1-0.9 1.7-1.6 2v0.1c0.6 0.1 1.1 0.2 1.5 0.5 0.4 0.2 0.7 0.5 0.8 0.9 0.2 0.3 0.5 1 0.9 2 0.5 1.2 0.8 1.9 1 2.2 0.2 0.3 0.5 0.4 0.9 0.5v0.6H98.5L98.5 77.4zM105.8 77.4v-0.6c0.2 0 0.4-0.1 0.6-0.2 0.1-0.1 0.3-0.2 0.3-0.3 0.1-0.1 0.1-0.3 0.1-0.5 0-0.2 0-0.4 0-0.7v-8.8h-0.7c-0.4 0-0.6 0-0.8 0.1 -0.2 0.1-0.4 0.2-0.5 0.4 -0.1 0.2-0.3 0.4-0.4 0.7 -0.1 0.3-0.2 0.6-0.2 0.8h-1.2v-3.1h10.4v3.1h-1.2c-0.1-0.4-0.2-0.7-0.3-0.9 -0.1-0.2-0.1-0.3-0.2-0.5 -0.1-0.1-0.2-0.2-0.3-0.3s-0.2-0.2-0.3-0.2c-0.1-0.1-0.2-0.1-0.4-0.1 -0.2 0-0.3 0-0.6 0h-0.6v8.8c0 0.3 0 0.5 0 0.7 0 0.2 0 0.3 0.1 0.4 0 0.1 0.1 0.2 0.2 0.2 0.1 0.1 0.2 0.1 0.3 0.2 0.1 0.1 0.3 0.1 0.5 0.1v0.6H105.8L105.8 77.4zM125.4 75.2c0 0.6 0.1 1 0.2 1.2 0.1 0.2 0.4 0.3 0.8 0.4v0.6h-4.6v-0.6c0.4-0.1 0.7-0.2 0.8-0.4 0.1-0.2 0.2-0.6 0.2-1.2v-3.4c0-1 0-1.8 0.1-2.4h-0.1l-4.2 5.8c0 0.6 0.1 1 0.2 1.2 0.1 0.2 0.4 0.4 0.8 0.5v0.6h-4.6v-0.6c0.4-0.1 0.7-0.2 0.8-0.4 0.1-0.2 0.2-0.6 0.2-1.2v-7.6c0-0.6-0.1-1-0.2-1.2 -0.1-0.2-0.4-0.3-0.8-0.5v-0.6h4.6v0.6c-0.4 0.1-0.7 0.3-0.8 0.5 -0.1 0.2-0.2 0.6-0.2 1.2v3.9c0 0.7 0 1.3-0.1 1.7h0.1l4.2-5.8c0-0.5-0.1-0.8-0.2-1 -0.1-0.2-0.4-0.3-0.8-0.4v-0.6h4.6v0.6c-0.4 0.1-0.7 0.3-0.8 0.5 -0.1 0.2-0.2 0.6-0.2 1.2V75.2L125.4 75.2zM135.4 77.4V77c-0.1-0.2-0.3-0.8-0.6-1.7 -0.4-1.1-0.7-1.9-0.9-2.3 -0.2-0.4-0.4-0.7-0.7-0.9 -0.3-0.2-0.7-0.3-1.2-0.3h-0.2v3.5c0 0.6 0.1 1 0.2 1.2 0.1 0.2 0.4 0.4 0.8 0.5v0.6h-4.6v-0.6c0.4-0.1 0.7-0.2 0.8-0.4 0.1-0.2 0.2-0.6 0.2-1.2v-7.6c0-0.6-0.1-1-0.2-1.2 -0.1-0.2-0.4-0.3-0.8-0.5v-0.6h4.6v0.6c-0.4 0.1-0.7 0.3-0.8 0.5 -0.1 0.2-0.2 0.6-0.2 1.2v3.1h0.2c0.7 0 1.3-0.2 1.6-0.6 0.4-0.4 0.7-1 0.9-1.8 0.3-0.9 0.6-1.6 0.8-2 0.3-0.4 0.6-0.7 1-0.9 0.4-0.2 0.9-0.3 1.5-0.3 0.5 0 0.9 0.1 1.3 0.2v2.2h-1.2c-0.1-0.5-0.3-0.8-0.7-0.8 -0.3 0-0.6 0.2-0.8 0.5 -0.2 0.3-0.4 0.8-0.7 1.4 -0.4 1-0.9 1.7-1.6 2v0.1c0.6 0.1 1.1 0.2 1.5 0.5 0.4 0.2 0.7 0.5 0.8 0.9 0.2 0.3 0.5 1 0.9 2 0.5 1.2 0.8 1.9 1 2.2 0.2 0.3 0.5 0.4 0.9 0.5v0.6H135.4L135.4 77.4zM146.5 73.7h-3.8l-0.3 0.8c-0.1 0.2-0.2 0.5-0.2 0.7 -0.1 0.2-0.1 0.5-0.1 0.7 0 0.6 0.3 0.9 0.9 0.9v0.6h-3.8v-0.6c0.2 0 0.4-0.1 0.6-0.2 0.2-0.1 0.3-0.3 0.4-0.5 0.1-0.2 0.3-0.5 0.4-1l3.7-9.8h2.4l2.9 9.9c0.1 0.4 0.2 0.8 0.3 0.9 0.1 0.2 0.2 0.3 0.3 0.4 0.1 0.1 0.3 0.2 0.6 0.3v0.6h-4.9v-0.6c0.3 0 0.5-0.1 0.7-0.3 0.1-0.1 0.2-0.3 0.2-0.6 0-0.2 0-0.4-0.1-0.6 0-0.2-0.1-0.5-0.2-0.8L146.5 73.7 146.5 73.7zM143.1 72.6h3.2l-1.4-5L143.1 72.6 143.1 72.6z"/><path class="st0" d="M77.7 37.8c0.2 1.7 2.8 1.4 2.6-0.3C80.2 35.7 77.5 36 77.7 37.8L77.7 37.8z"/><path class="st0" d="M79 34.7c0.4-1.5-1.8-1.9-2.2-0.6C76.4 35.6 78.7 36.2 79 34.7L79 34.7z"/><path class="st0" d="M78.6 40.8c0.2 1.4 2.4 1.1 2.2-0.3C80.7 39.1 78.3 39.2 78.6 40.8L78.6 40.8z"/><path class="st0" d="M78.7 43.9c0.3 1.2 2.3 1 2.1-0.4C80.6 42.1 78.4 42.4 78.7 43.9L78.7 43.9z"/><path class="st0" d="M75.8 31.6c0.2 1.1 2.2 0.9 2-0.4C77.6 30 75.5 30.2 75.8 31.6L75.8 31.6z"/><path class="st0" d="M78.3 47c0.3 1.2 2.2 0.8 1.9-0.5C79.9 45.3 78 45.7 78.3 47L78.3 47z"/><path class="st0" d="M75 28.8c0.1 1.1 1.8 1.1 1.8-0.1C76.8 27.5 74.9 27.6 75 28.8L75 28.8z"/><path class="st0" d="M76.3 26.3c0.4-1-1.3-1.5-1.6-0.5C74.5 26.8 75.9 27.3 76.3 26.3L76.3 26.3z"/><path class="st0" d="M77.5 49.9c0.3 0.8 1.8 0.4 1.5-0.6C78.6 48.4 77 48.8 77.5 49.9L77.5 49.9z"/><path class="st0" d="M76.4 23.8c0.6-0.8-0.8-1.5-1.2-0.7C74.9 24 76 24.5 76.4 23.8L76.4 23.8z"/><path class="st0" d="M77.2 52.7c0.5-0.6-0.5-1.5-1-0.8C75.7 52.7 76.9 53.2 77.2 52.7L77.2 52.7z"/></svg>
