<?xml version="1.0" encoding="utf-8"?>
<!-- Generator: Adobe Illustrator 22.1.0, SVG Export Plug-In . SVG Version: 6.00 Build 0)  -->
<svg version="1.1" id="Слой_1" xmlns="http://www.w3.org/2000/svg" xmlns:xlink="http://www.w3.org/1999/xlink" x="0px" y="0px"
	 viewBox="0 0 30 30" style="enable-background:new 0 0 30 30;" xml:space="preserve">
<g>
	<path d="M28.6,1.8h-5.8V0.9c0-0.5-0.4-0.9-0.9-0.9C21.4,0,21,0.4,21,0.9v0.9h-5.2V0.9C15.9,0.4,15.5,0,15,0c-0.5,0-0.9,0.4-0.9,0.9
		v0.9H9.2V0.9C9.2,0.4,8.8,0,8.3,0C7.8,0,7.4,0.4,7.4,0.9v0.9h-6c-0.5,0-0.9,0.4-0.9,0.9v20c0,0.5,0.4,0.9,0.9,0.9h5.4
		C7.7,27.2,11,30,15,30s7.3-2.8,8.2-6.5h5.4c0.5,0,0.9-0.4,0.9-0.9v-20C29.5,2.2,29.1,1.8,28.6,1.8L28.6,1.8z M7.4,3.5v0.8
		c0,0.5,0.4,0.9,0.9,0.9c0.5,0,0.9-0.4,0.9-0.9V3.5h4.9v0.8c0,0.5,0.4,0.9,0.9,0.9c0.5,0,0.9-0.4,0.9-0.9V3.5H21v0.8
		c0,0.5,0.4,0.9,0.9,0.9c0.5,0,0.9-0.4,0.9-0.9V3.5h4.9v3.6H2.3V3.5H7.4z M15,28.2c-3.7,0-6.6-3-6.6-6.6s3-6.6,6.6-6.6
		c3.7,0,6.6,3,6.6,6.6C21.6,25.3,18.7,28.2,15,28.2z M23.4,21.7c0,0,0-0.1,0-0.1c0-4.6-3.8-8.4-8.4-8.4c-4.6,0-8.4,3.8-8.4,8.4
		c0,0,0,0.1,0,0.1H2.3V8.9h25.5v12.8H23.4L23.4,21.7z"/>
	<path d="M15.9,21.8v-4.3c0-0.5-0.4-0.9-0.9-0.9c-0.5,0-0.9,0.4-0.9,0.9v4.6c0,0.2,0.1,0.5,0.3,0.6l2,2c0.2,0.2,0.4,0.3,0.6,0.3
		c0.2,0,0.5-0.1,0.6-0.3c0.3-0.3,0.3-0.9,0-1.3L15.9,21.8L15.9,21.8z"/>
</g>
</svg>
