<?xml version="1.0" encoding="utf-8"?>
<!-- Generator: Adobe Illustrator 22.1.0, SVG Export Plug-In . SVG Version: 6.00 Build 0)  -->
<svg version="1.1" id="Слой_1" xmlns="http://www.w3.org/2000/svg" xmlns:xlink="http://www.w3.org/1999/xlink" x="0px" y="0px"
	 viewBox="0 0 30 30" style="enable-background:new 0 0 30 30;" xml:space="preserve">
<g>
	<path d="M29.4,8.7l-6.1-6.1C22.9,2.2,22.4,2,21.8,2c-0.5,0-1.1,0.2-1.4,0.6L19,4c-0.2,0.2-0.4,0.5-0.5,0.8l-6.7-1.2c0,0,0,0,0,0
		C8.8,3,5.8,5,5.2,8L4.9,9.5c-0.3,1.7,0.8,3.4,2.5,3.7c1.7,0.3,3.4-0.8,3.7-2.5l0.2-0.9l3,0.3l7.9,7.9l1.4,1.4c0.3,0.3,0.3,0.8,0,1
		c-0.3,0.3-0.8,0.3-1,0l-3.8-3.8c-0.3-0.3-0.7-0.3-1,0c-0.3,0.3-0.3,0.7,0,1l3.8,3.8c0.1,0.1,0.2,0.3,0.2,0.5c0,0.2-0.1,0.4-0.2,0.5
		c-0.3,0.3-0.8,0.3-1,0l-3.8-3.8c-0.3-0.3-0.7-0.3-1,0c-0.3,0.3-0.3,0.7,0,1l3.8,3.8c0.3,0.3,0.3,0.8,0,1c-0.1,0.1-0.3,0.2-0.5,0.2
		c-0.2,0-0.4-0.1-0.5-0.2l-3.8-3.8c-0.3-0.3-0.7-0.3-1,0c-0.3,0.3-0.3,0.7,0,1l3.8,3.8c0.3,0.3,0.3,0.8,0,1c-0.3,0.3-0.8,0.3-1,0
		L2.9,12.9l-1.8-1.8c-0.3-0.3-0.7-0.3-1,0c-0.3,0.3-0.3,0.7,0,1L2,13.9l1.9,1.9l-1.1,1.1c-0.4,0.4-0.5,0.8-0.5,1.3
		c0,0.5,0.2,1,0.5,1.3l0.3,0.3c0.3,0.3,0.7,0.5,1.1,0.5c0,0.4,0.2,0.8,0.5,1.1l0.3,0.3c0.3,0.3,0.7,0.5,1.1,0.5
		c0,0.4,0.2,0.8,0.5,1.1l0.3,0.3c0.3,0.3,0.7,0.5,1.1,0.5c0,0.4,0.2,0.8,0.5,1.1l0.3,0.3c0.4,0.4,0.8,0.5,1.3,0.5
		c0.5,0,1-0.2,1.3-0.5l1.1-1.1l2.6,2.6c0.4,0.4,0.9,0.6,1.5,0.6c0.6,0,1.1-0.2,1.5-0.6c0.4-0.4,0.6-0.9,0.6-1.4c0.5,0,1-0.2,1.4-0.6
		c0.4-0.4,0.6-0.9,0.6-1.4c0.5,0,1-0.2,1.4-0.6c0.4-0.4,0.6-0.9,0.6-1.4c0.5,0,1-0.2,1.4-0.6c0.8-0.8,0.8-2.2,0-3l-0.9-0.9L27,14
		l2.4-2.4C30.2,10.8,30.2,9.5,29.4,8.7L29.4,8.7z M3.8,18.6c-0.2-0.2-0.2-0.5,0-0.7l1-1l1,1l-1,1c-0.2,0.2-0.5,0.2-0.7,0L3.8,18.6z
		 M5.8,20.6c-0.2-0.2-0.2-0.5,0-0.7l1-1l1,1l-1,1c-0.2,0.2-0.5,0.2-0.7,0L5.8,20.6z M7.8,22.6c-0.1-0.1-0.1-0.2-0.1-0.3
		c0-0.1,0.1-0.3,0.1-0.3l1-1l1,1l-1,1c-0.2,0.2-0.5,0.2-0.7,0L7.8,22.6L7.8,22.6z M10.9,24.9c-0.2,0.2-0.5,0.2-0.7,0l-0.3-0.3
		c-0.2-0.2-0.2-0.5,0-0.7l1-1l1,1L10.9,24.9L10.9,24.9z M22.6,16.5L15,8.9c-0.1-0.1-0.3-0.2-0.4-0.2l-3.9-0.3c0,0,0,0-0.1,0
		c-0.3,0-0.6,0.2-0.7,0.5l-0.3,1.5c-0.2,1-1.1,1.6-2.1,1.4c-0.5-0.1-0.9-0.4-1.1-0.8c-0.3-0.4-0.4-0.9-0.3-1.3l0.3-1.5
		C7,6,9.2,4.5,11.5,4.9c0,0,0,0,0,0l6.6,1.2L19,6.9l6.6,6.6L22.6,16.5z M28.4,10.6l-1.9,1.9L19.9,6c-0.1-0.1-0.2-0.3-0.2-0.5
		s0.1-0.4,0.2-0.5l1.4-1.4c0.1-0.1,0.3-0.2,0.5-0.2c0.2,0,0.4,0.1,0.5,0.2l6.1,6.1c0.1,0.1,0.2,0.3,0.2,0.5
		C28.6,10.3,28.6,10.5,28.4,10.6L28.4,10.6z"/>
	<path d="M26.8,9.7c0.4,0,0.7,0.3,0.7,0.7c0,0.4-0.3,0.7-0.7,0.7c-0.4,0-0.7-0.3-0.7-0.7C26.1,10,26.4,9.7,26.8,9.7z"/>
</g>
</svg>
