<svg xmlns="http://www.w3.org/2000/svg" viewBox="0 0 24 24"><path d="M20.5 3.5C18.2 1.3 15.2 0 12 0S5.8 1.3 3.5 3.5c-4.4 4.4-4.7 11.4-0.8 16.1 -0.5 1.1-1.2 1.8-1.9 2.2C0.4 22 0.1 22.5 0.2 23c0.1 0.5 0.4 0.9 0.9 0.9C1.4 23.9 1.7 24 2 24l0 0c1.5 0 3-0.5 4.3-1.4C8 23.5 10 24 12 24c3.2 0 6.2-1.2 8.5-3.5S24 15.2 24 12 22.7 5.8 20.5 3.5zM19.5 19.5c-2 2-4.7 3.1-7.5 3.1 -1.9 0-3.8-0.5-5.4-1.5 -0.1-0.1-0.2-0.1-0.3-0.1 -0.1 0-0.3 0.1-0.4 0.1 -1.5 1.2-3.1 1.4-3.8 1.4 0.8-0.6 1.5-1.5 2.1-2.8C4.2 19.5 4.2 19.2 4 19 0.3 14.8 0.5 8.4 4.5 4.5c2-2 4.7-3.1 7.5-3.1s5.5 1.1 7.5 3.1C23.7 8.6 23.7 15.4 19.5 19.5z"/><path d="M17 8H7C6.6 8 6.3 8.3 6.3 8.7S6.6 9.4 7 9.4H17c0.4 0 0.7-0.3 0.7-0.7S17.4 8 17 8z"/><path d="M17 11.3H7c-0.4 0-0.7 0.3-0.7 0.7s0.3 0.7 0.7 0.7H17c0.4 0 0.7-0.3 0.7-0.7S17.4 11.3 17 11.3z"/><path d="M17 14.6H7c-0.4 0-0.7 0.3-0.7 0.7S6.6 16 7 16H17c0.4 0 0.7-0.3 0.7-0.7S17.4 14.6 17 14.6z"/></svg>
