<svg xmlns="http://www.w3.org/2000/svg" viewBox="0 0 24 24"><path d="M4.8 16c2.4 2.8 5.2 5.1 8.5 6.6 1.2 0.6 2.9 1.3 4.7 1.4 0.1 0 0.2 0 0.3 0 1.2 0 2.2-0.4 3-1.3 0 0 0 0 0 0 0.3-0.3 0.6-0.7 1-1 0.2-0.2 0.5-0.5 0.7-0.7 1.1-1.1 1.1-2.5 0-3.6l-3-3c-0.5-0.5-1.1-0.8-1.8-0.8 -0.6 0-1.2 0.3-1.8 0.8l-1.8 1.8c-0.2-0.1-0.3-0.2-0.5-0.3 -0.2-0.1-0.4-0.2-0.5-0.3 -1.6-1-3.1-2.4-4.5-4.1 -0.7-0.9-1.2-1.7-1.5-2.4 0.5-0.4 0.9-0.9 1.3-1.3 0.1-0.2 0.3-0.3 0.5-0.5 0.5-0.5 0.8-1.2 0.8-1.8 0-0.6-0.3-1.3-0.8-1.8L8.1 2.3C7.9 2.1 7.7 1.9 7.6 1.8c-0.3-0.3-0.7-0.7-1-1C6 0.3 5.4 0 4.8 0 4.2 0 3.6 0.3 3 0.8L1.2 2.6C0.5 3.3 0.1 4.1 0 5.1c-0.1 1.2 0.1 2.5 0.7 4C1.6 11.4 2.9 13.6 4.8 16zM1.2 5.2C1.3 4.5 1.5 4 2 3.5l1.8-1.8c0.3-0.3 0.6-0.4 0.9-0.4 0.3 0 0.6 0.1 0.9 0.4 0.3 0.3 0.6 0.6 1 1C6.8 2.8 7 3 7.2 3.2l1.5 1.5C9 4.9 9.1 5.3 9.1 5.6c0 0.3-0.2 0.6-0.5 0.9C8.5 6.6 8.4 6.8 8.2 7 7.7 7.4 7.3 7.9 6.8 8.3c0 0 0 0 0 0C6.4 8.7 6.5 9.1 6.6 9.4c0 0 0 0 0 0 0.4 0.9 0.9 1.8 1.7 2.8 1.5 1.8 3.1 3.3 4.8 4.4 0.2 0.1 0.4 0.2 0.7 0.4 0.2 0.1 0.4 0.2 0.5 0.3 0 0 0 0 0.1 0 0.2 0.1 0.3 0.1 0.5 0.1 0.4 0 0.7-0.3 0.7-0.3l1.9-1.9c0.3-0.3 0.6-0.4 0.9-0.4 0.4 0 0.7 0.2 0.9 0.4l3 3c0.6 0.6 0.6 1.2 0 1.9 -0.2 0.2-0.4 0.4-0.7 0.7 -0.3 0.3-0.7 0.7-1 1.1 -0.6 0.6-1.3 0.9-2.1 0.9 -0.1 0-0.2 0-0.3 0 -1.6-0.1-3.1-0.7-4.3-1.3C10.8 20 8 17.9 5.8 15.2 3.9 13 2.7 10.9 1.9 8.6 1.3 7.3 1.2 6.2 1.2 5.2z"/></svg>
