<svg xmlns="http://www.w3.org/2000/svg" viewBox="0 0 24 24"><path d="M1.9 0.8L1.3 1.5C0.4 2.3 0 3.5 0 4.9c0 3.6 2.5 8.3 6.6 12.4 6 6 12.9 8.3 15.9 5.4l0.7-0.7c0.5-0.5 0.8-1.2 0.8-1.9s-0.3-1.4-0.8-1.9l-2.7-2.7c-1-1-2.7-1-3.8 0l-0.7 0.7c-0.7 0.7-2.6 0.4-5.7-2.7 -2.6-2.6-3-4.1-3-4.8 0-0.4 0.1-0.6 0.3-0.9l0.7-0.7c1-1 1-2.8 0-3.8L5.7 0.8C5.2 0.3 4.5 0 3.8 0 3.1 0 2.4 0.3 1.9 0.8zM4.6 1.9l2.7 2.7c0.4 0.4 0.4 1.2 0 1.6L6.6 6.8C6.1 7.3 5.9 8 5.9 8.8c0 1.6 1.2 3.6 3.5 5.9 4.7 4.7 7 3.5 7.8 2.7l0.7-0.7c0.4-0.4 1.2-0.4 1.6 0l2.7 2.7c0.4 0.4 0.4 1.2 0 1.6l-0.7 0.7c-2.3 2.3-8.5-0.2-13.7-5.4C3.9 12.5 1.5 8 1.5 4.9c0-1 0.3-1.9 0.8-2.4L3 1.9c0.2-0.2 0.5-0.3 0.8-0.3C4.1 1.5 4.4 1.6 4.6 1.9z"/></svg>
