<svg xmlns="http://www.w3.org/2000/svg" viewBox="0 0 24 24"><path d="M14.6 22.5c0-3.1 0-6.2 0-9.2 0-3.3 1.1-6.1 3.4-8.5 1.5-1.6 3.3-2.6 5.4-3.2 0.1 0 0.3-0.1 0.4-0.1 0.2 0 0.2 0 0.2 0.2 0 1.3 0 2.7 0 4 -0.2 0.1-0.4 0.2-0.5 0.2 -2.8 1.2-4.1 3.7-3.9 7 1.5 0 3 0 4.5 0 0 3.2 0 6.3 0 9.5C20.9 22.5 17.8 22.5 14.6 22.5z"/><path d="M9.4 1.5c0 1.3 0 2.6 0 3.9 0 0.2-0.1 0.3-0.3 0.4 -2.7 1-3.9 3.1-4.2 5.9 0 0.4-0.1 0.8-0.1 1.3 1.5 0 3 0 4.5 0 0 3.2 0 6.4 0 9.5 -3.1 0-6.2 0-9.4 0 0-3.4 0-6.9 0-10.3 0-0.3 0.1-0.6 0.1-0.8 0.7-4.2 2.9-7.2 6.8-9.1C7.6 2 8.4 1.8 9.1 1.5 9.2 1.5 9.3 1.5 9.4 1.5z"/></svg>
