<svg xmlns="http://www.w3.org/2000/svg" viewBox="0 0 24 24"><path d="M12 16.5c3.7 0 6.8-3.7 6.8-8.3S15.7 0 12 0c-1.8 0-3.6 0.9-4.8 2.5C5.9 4 5.3 6.1 5.3 8.3 5.3 12.8 8.3 16.5 12 16.5zM12 1.5c2.9 0 5.3 3 5.3 6.7 0 3.7-2.4 6.8-5.3 6.8s-5.3-3-5.3-6.8C6.7 4.5 9.1 1.5 12 1.5zM17.3 15c-0.4 0-0.8 0.3-0.8 0.8s0.3 0.8 0.8 0.8c2.9 0 5.3 2.4 5.3 5.3 0 0.4-0.3 0.8-0.8 0.8H2.3c-0.4 0-0.8-0.3-0.8-0.8 0-2.9 2.4-5.3 5.3-5.3 0.4 0 0.8-0.3 0.8-0.8S7.2 15 6.8 15C3 15 0 18 0 21.8 0 23 1 24 2.3 24h19.5c1.2 0 2.3-1 2.3-2.3C24 18 21 15 17.3 15z"/></svg>
